<svg xmlns="http://www.w3.org/2000/svg" xml:space="preserve" width="50" height="50"><path fill="none" d="M0 0h50v50H0z"/><circle cx="43" cy="21" r="2"/><path fill="none" stroke="#f95146" stroke-linecap="round" stroke-miterlimit="10" stroke-width="2" d="M40 15V1H10v14M40 29v20H10V29h30z"/><path fill="none" stroke="#f95146" stroke-linecap="round" stroke-miterlimit="10" stroke-width="2" d="M10 40H3a2 2 0 0 1-2-2V17c0-1.1.9-2 2-2h44a2 2 0 0 1 2 2v21a2 2 0 0 1-2 2h-7M35 35H15M31 39H15M35 43H15"/></svg>